<svg width="393" height="313" viewBox="0 0 393 313" fill="none" xmlns="http://www.w3.org/2000/svg">
<circle cx="204.769" cy="159.362" r="153.249" fill="#FDFDFD"/>
<circle cx="61.1249" cy="55.8856" r="9.60536" fill="#FAFAFA"/>
<circle cx="309.554" cy="17.9011" r="17.9009" fill="#FAFAFA"/>
<circle cx="64.181" cy="258.035" r="17.0277" fill="#FAFAFA"/>
<circle cx="368.934" cy="241.443" r="17.0277" fill="#FAFAFA"/>
<circle cx="335.75" cy="260.655" r="8.29554" fill="#FAFAFA"/>
<path d="M229.242 12.6941C228.735 12.5865 228.735 11.8639 229.242 11.7563L236.896 10.1286C237.081 10.0893 237.225 9.94556 237.265 9.76123L238.913 2.16086C239.022 1.6571 239.741 1.6571 239.85 2.16086L241.498 9.76123C241.538 9.94556 241.682 10.0893 241.867 10.1286L249.521 11.7563C250.027 11.8639 250.027 12.5865 249.521 12.6941L241.867 14.3218C241.682 14.3611 241.538 14.5048 241.498 14.6892L239.85 22.2895C239.741 22.7933 239.022 22.7933 238.913 22.2895L237.265 14.6892C237.225 14.5048 237.081 14.3611 236.896 14.3218L229.242 12.6941Z" fill="#D5D7DA"/>
<path d="M21.1518 182.172C21.3472 181.249 22.6649 181.249 22.8604 182.172L25.7793 195.962C25.8505 196.298 26.1121 196.561 26.4478 196.634L40.0957 199.608C41.0121 199.807 41.0121 201.114 40.0957 201.314L26.4478 204.287C26.1121 204.36 25.8505 204.623 25.7793 204.96L22.8604 218.75C22.6649 219.673 21.3472 219.673 21.1518 218.75L18.2328 204.96C18.1617 204.623 17.9001 204.36 17.5644 204.287L3.91648 201.314C3.00002 201.114 3.00002 199.807 3.91648 199.608L17.5644 196.634C17.9001 196.561 18.1617 196.298 18.2328 195.962L21.1518 182.172Z" fill="#D5D7DA"/>
<path d="M341.727 59.9219C341.922 58.9987 343.24 58.9987 343.435 59.9219L345.138 67.9669C345.209 68.303 345.471 68.5661 345.806 68.6393L353.791 70.3787C354.707 70.5784 354.707 71.8855 353.791 72.0851L345.806 73.8246C345.471 73.8977 345.209 74.1608 345.138 74.4969L343.435 82.5419C343.24 83.4651 341.922 83.4651 341.727 82.5419L340.024 74.4969C339.952 74.1608 339.691 73.8977 339.355 73.8246L331.371 72.0851C330.454 71.8855 330.454 70.5784 331.371 70.3787L339.355 68.6393C339.691 68.5661 339.952 68.303 340.024 67.9669L341.727 59.9219Z" fill="#D5D7DA"/>
<path d="M376.93 188.903L379.604 201.536L392.057 204.249L379.604 206.962L376.93 219.595L374.256 206.962L361.803 204.249L374.256 201.536L376.93 188.903Z" fill="#A4A7AE"/>
<rect x="201.575" y="71.5086" width="157.361" height="169.41" rx="9.16174" transform="rotate(10 201.575 71.5086)" fill="#A4A7AE" stroke="#F1F2F3" stroke-width="3.49286"/>
<rect x="209.092" y="82.2466" width="137.895" height="120.284" rx="9.16174" transform="rotate(10 209.092 82.2466)" fill="#FDFDFD" stroke="#F1F2F3" stroke-width="3.49286"/>
<rect x="49.4895" y="98.8336" width="157.361" height="169.41" rx="9.16174" transform="rotate(-10 49.4895 98.8336)" fill="#A4A7AE" stroke="#F1F2F3" stroke-width="3.49286"/>
<rect x="60.2283" y="106.353" width="137.895" height="120.284" rx="9.16174" transform="rotate(-10 60.2283 106.353)" fill="#FDFDFD" stroke="#F1F2F3" stroke-width="3.49286"/>
<rect x="114.049" y="57.6325" width="187.683" height="202.108" rx="10.6231" fill="#A4A7AE" stroke="#F1F2F3" stroke-width="3.49286"/>
<rect x="125.587" y="68.8798" width="164.382" height="143.3" rx="10.6231" fill="#FDFDFD" stroke="#F1F2F3" stroke-width="3.49286"/>
<circle cx="161.204" cy="101.711" r="12.9741" fill="#A4A7AE"/>
<path d="M181.665 97.0957H265.254" stroke="#F1F2F3" stroke-width="3.49286" stroke-linecap="round"/>
<path d="M181.665 106.848L222.066 106.848" stroke="#F1F2F3" stroke-width="3.49286" stroke-linecap="round"/>
<circle cx="161.204" cy="140.198" r="12.9741" fill="#A4A7AE"/>
<path d="M181.665 135.583H265.254" stroke="#F1F2F3" stroke-width="3.49286" stroke-linecap="round"/>
<path d="M181.665 145.335H222.066" stroke="#F1F2F3" stroke-width="3.49286" stroke-linecap="round"/>
<circle cx="161.204" cy="178.685" r="12.9741" fill="#A4A7AE"/>
<path d="M181.665 174.069H265.254" stroke="#F1F2F3" stroke-width="3.49286" stroke-linecap="round"/>
<path d="M181.665 183.821H222.066" stroke="#F1F2F3" stroke-width="3.49286" stroke-linecap="round"/>
</svg>
